<mxfile host="65bd71144e">
    <diagram id="A3qWTJxBf30MFO97emnY" name="Page-1">
        <mxGraphModel dx="1377" dy="1045" grid="1" gridSize="10" guides="1" tooltips="1" connect="1" arrows="1" fold="1" page="1" pageScale="1" pageWidth="850" pageHeight="1100" math="0" shadow="0">
            <root>
                <mxCell id="0"/>
                <mxCell id="1" parent="0"/>
                <mxCell id="2" value="" style="strokeWidth=1;shadow=0;dashed=0;align=center;html=1;shape=mxgraph.mockup.containers.browserWindow;rSize=0;strokeColor=#666666;strokeColor2=#008cff;strokeColor3=#c4c4c4;mainText=,;recursiveResize=0;" parent="1" vertex="1">
                    <mxGeometry x="10" y="10" width="830" height="600" as="geometry"/>
                </mxCell>
                <mxCell id="3" value="aut.dig" style="strokeWidth=1;shadow=0;dashed=0;align=center;html=1;shape=mxgraph.mockup.containers.anchor;fontSize=17;fontColor=#666666;align=left;" parent="2" vertex="1">
                    <mxGeometry x="60" y="12" width="110" height="26" as="geometry"/>
                </mxCell>
                <mxCell id="4" value="https://autorizacao.digital/agreement" style="strokeWidth=1;shadow=0;dashed=0;align=center;html=1;shape=mxgraph.mockup.containers.anchor;rSize=0;fontSize=17;fontColor=#666666;align=left;" parent="2" vertex="1">
                    <mxGeometry x="130" y="60" width="250" height="26" as="geometry"/>
                </mxCell>
                <mxCell id="9" value="" style="group" parent="2" vertex="1" connectable="0">
                    <mxGeometry x="130" y="220" width="230" height="60" as="geometry"/>
                </mxCell>
                <mxCell id="10" value="" style="group" parent="9" vertex="1" connectable="0">
                    <mxGeometry width="230" height="60" as="geometry"/>
                </mxCell>
                <mxCell id="11" value="" style="rounded=0;whiteSpace=wrap;html=1;align=left;" parent="10" vertex="1">
                    <mxGeometry y="20" width="230" height="30" as="geometry"/>
                </mxCell>
                <mxCell id="12" value="Chave do processo" style="text;html=1;strokeColor=none;fillColor=none;align=left;verticalAlign=middle;whiteSpace=wrap;rounded=0;" parent="10" vertex="1">
                    <mxGeometry width="230" height="20" as="geometry"/>
                </mxCell>
                <mxCell id="26" value="" style="group" vertex="1" connectable="0" parent="2">
                    <mxGeometry x="130" y="290" width="230" height="60" as="geometry"/>
                </mxCell>
                <mxCell id="27" value="" style="group" vertex="1" connectable="0" parent="26">
                    <mxGeometry width="230" height="60" as="geometry"/>
                </mxCell>
                <mxCell id="28" value="" style="rounded=0;whiteSpace=wrap;html=1;align=left;" vertex="1" parent="27">
                    <mxGeometry y="20" width="230" height="30" as="geometry"/>
                </mxCell>
                <mxCell id="29" value="Nome do cliente" style="text;html=1;strokeColor=none;fillColor=none;align=left;verticalAlign=middle;whiteSpace=wrap;rounded=0;" vertex="1" parent="27">
                    <mxGeometry width="230" height="20" as="geometry"/>
                </mxCell>
                <mxCell id="30" value="" style="group" vertex="1" connectable="0" parent="2">
                    <mxGeometry x="130" y="360" width="230" height="60" as="geometry"/>
                </mxCell>
                <mxCell id="31" value="" style="group" vertex="1" connectable="0" parent="30">
                    <mxGeometry width="230" height="60" as="geometry"/>
                </mxCell>
                <mxCell id="32" value="" style="rounded=0;whiteSpace=wrap;html=1;align=left;" vertex="1" parent="31">
                    <mxGeometry y="20" width="230" height="30" as="geometry"/>
                </mxCell>
                <mxCell id="33" value="Nome do responsável" style="text;html=1;strokeColor=none;fillColor=none;align=left;verticalAlign=middle;whiteSpace=wrap;rounded=0;" vertex="1" parent="31">
                    <mxGeometry width="230" height="20" as="geometry"/>
                </mxCell>
                <mxCell id="34" value="" style="group" vertex="1" connectable="0" parent="2">
                    <mxGeometry x="475" y="295" width="230" height="60" as="geometry"/>
                </mxCell>
                <mxCell id="35" value="" style="group" vertex="1" connectable="0" parent="34">
                    <mxGeometry width="230" height="60" as="geometry"/>
                </mxCell>
                <mxCell id="36" value="" style="rounded=0;whiteSpace=wrap;html=1;align=left;" vertex="1" parent="35">
                    <mxGeometry y="20" width="230" height="30" as="geometry"/>
                </mxCell>
                <mxCell id="37" value="Identidade do cliente" style="text;html=1;strokeColor=none;fillColor=none;align=left;verticalAlign=middle;whiteSpace=wrap;rounded=0;" vertex="1" parent="35">
                    <mxGeometry width="230" height="20" as="geometry"/>
                </mxCell>
                <mxCell id="38" value="" style="group" vertex="1" connectable="0" parent="2">
                    <mxGeometry x="475" y="365" width="230" height="60" as="geometry"/>
                </mxCell>
                <mxCell id="39" value="" style="group" vertex="1" connectable="0" parent="38">
                    <mxGeometry width="230" height="60" as="geometry"/>
                </mxCell>
                <mxCell id="40" value="" style="rounded=0;whiteSpace=wrap;html=1;align=left;" vertex="1" parent="39">
                    <mxGeometry y="20" width="230" height="30" as="geometry"/>
                </mxCell>
                <mxCell id="41" value="Identidade do responsável" style="text;html=1;strokeColor=none;fillColor=none;align=left;verticalAlign=middle;whiteSpace=wrap;rounded=0;" vertex="1" parent="39">
                    <mxGeometry width="230" height="20" as="geometry"/>
                </mxCell>
                <mxCell id="14" value="&lt;font color=&quot;#ffffff&quot;&gt;SEND BY EMAIL&lt;/font&gt;" style="rounded=1;whiteSpace=wrap;html=1;align=center;strokeColor=#2D7600;fontColor=#ffffff;fillColor=#00A653;" parent="2" vertex="1">
                    <mxGeometry x="135" y="470" width="230" height="30" as="geometry"/>
                </mxCell>
                <mxCell id="13" value="&lt;font color=&quot;#ffffff&quot;&gt;DOWNLOAD&lt;/font&gt;" style="rounded=1;whiteSpace=wrap;html=1;align=center;fillColor=#00A653;strokeColor=none;" parent="2" vertex="1">
                    <mxGeometry x="135" y="510" width="230" height="30" as="geometry"/>
                </mxCell>
                <mxCell id="15" value="&lt;font color=&quot;#ffffff&quot;&gt;GO BACK&lt;/font&gt;" style="rounded=1;whiteSpace=wrap;html=1;align=center;fillColor=#0050ef;strokeColor=#001DBC;fontColor=#ffffff;" parent="2" vertex="1">
                    <mxGeometry x="475" y="510" width="230" height="30" as="geometry"/>
                </mxCell>
                <mxCell id="16" value="&lt;b&gt;&lt;font style=&quot;font-size: 15px&quot;&gt;aut.dig&lt;/font&gt;&lt;/b&gt;" style="text;html=1;strokeColor=none;fillColor=none;align=center;verticalAlign=middle;whiteSpace=wrap;rounded=0;" vertex="1" parent="1">
                    <mxGeometry x="445" y="158" width="40" height="20" as="geometry"/>
                </mxCell>
                <mxCell id="17" value="" style="shape=mxgraph.mockup.markup.scratchOut;shadow=0;dashed=0;html=1;strokeColor=#999999;strokeWidth=2;" vertex="1" parent="1">
                    <mxGeometry x="370" y="153" width="55" height="30" as="geometry"/>
                </mxCell>
                <mxCell id="18" value="" style="group" vertex="1" connectable="0" parent="1">
                    <mxGeometry x="485" y="230" width="230" height="60" as="geometry"/>
                </mxCell>
                <mxCell id="19" value="" style="group" vertex="1" connectable="0" parent="18">
                    <mxGeometry width="230" height="60" as="geometry"/>
                </mxCell>
                <mxCell id="20" value="" style="rounded=0;whiteSpace=wrap;html=1;align=left;" vertex="1" parent="19">
                    <mxGeometry y="20" width="230" height="30" as="geometry"/>
                </mxCell>
                <mxCell id="21" value="Advogado" style="text;html=1;strokeColor=none;fillColor=none;align=left;verticalAlign=middle;whiteSpace=wrap;rounded=0;" vertex="1" parent="19">
                    <mxGeometry width="230" height="20" as="geometry"/>
                </mxCell>
            </root>
        </mxGraphModel>
    </diagram>
</mxfile>